<svg width="29" height="28" viewBox="0 0 29 28" fill="none" xmlns="http://www.w3.org/2000/svg">
<path fill-rule="evenodd" clip-rule="evenodd" d="M19.8417 1.16675C24.0732 1.16675 26.9163 4.13708 26.9163 8.55758V18.8592C26.9163 23.2797 24.0732 26.2501 19.8417 26.2501H8.90768C4.67617 26.2501 1.83301 23.2797 1.83301 18.8592V8.55758C1.83301 4.13708 4.67617 1.16675 8.90768 1.16675H19.8417ZM19.8417 2.91675H8.90768C5.67367 2.91675 3.58301 5.12991 3.58301 8.55758V18.8592C3.58301 22.2869 5.67367 24.5001 8.90768 24.5001H19.8417C23.0768 24.5001 25.1663 22.2869 25.1663 18.8592V8.55758C25.1663 5.12991 23.0768 2.91675 19.8417 2.91675ZM8.97429 10.7363C9.45729 10.7363 9.84929 11.1283 9.84929 11.6113V19.6147C9.84929 20.0977 9.45729 20.4897 8.97429 20.4897C8.49129 20.4897 8.09929 20.0977 8.09929 19.6147V11.6113C8.09929 11.1283 8.49129 10.7363 8.97429 10.7363ZM14.4191 6.905C14.9021 6.905 15.2941 7.297 15.2941 7.78V19.6135C15.2941 20.0965 14.9021 20.4885 14.4191 20.4885C13.9361 20.4885 13.5441 20.0965 13.5441 19.6135V7.78C13.5441 7.297 13.9361 6.905 14.4191 6.905ZM19.7745 14.9655C20.2575 14.9655 20.6495 15.3575 20.6495 15.8405V19.6135C20.6495 20.0965 20.2575 20.4885 19.7745 20.4885C19.2915 20.4885 18.8995 20.0965 18.8995 19.6135V15.8405C18.8995 15.3575 19.2915 14.9655 19.7745 14.9655Z" fill="#8C8C8C"/>
</svg>
