<svg width="24" height="24" viewBox="0 0 24 24" fill="none" xmlns="http://www.w3.org/2000/svg">
<path d="M16.5512 17.7486L12.0085 13.2088L7.46017 17.7486C7.38105 17.828 7.28706 17.8911 7.18354 17.9343C7.08003 17.9774 6.96902 17.9997 6.85687 18C6.74472 18.0003 6.63361 17.9784 6.52989 17.9358C6.42618 17.8931 6.33188 17.8305 6.25239 17.7514C6.1729 17.6724 6.10977 17.5784 6.06661 17.475C6.02345 17.3715 6.0011 17.2606 6.00083 17.1485C6.00057 17.0364 6.0224 16.9254 6.06507 16.8218C6.10775 16.7181 6.17043 16.6239 6.24955 16.5444L10.7979 12.0047L6.24955 7.45356C6.08977 7.29388 6 7.0773 6 6.85148C6 6.62565 6.08977 6.40907 6.24955 6.24939C6.40934 6.08971 6.62605 6 6.85202 6C7.07799 6 7.29471 6.08971 7.45449 6.24939L12.0028 10.7948L16.5455 6.24939C16.7053 6.08971 16.922 6 17.148 6C17.3739 6 17.5907 6.08971 17.7504 6.24939C17.9102 6.40907 18 6.62565 18 6.85148C18 7.0773 17.9102 7.29388 17.7504 7.45356L13.2078 11.999L17.7504 16.5388C17.9102 16.6984 18 16.915 18 17.1408C18 17.3667 17.9102 17.5832 17.7504 17.7429C17.5907 17.9026 17.3739 17.9923 17.148 17.9923C16.922 17.9923 16.7053 17.9026 16.5455 17.7429L16.5512 17.7486Z" fill="#227EFF"/>
</svg>
