<svg width="24" height="24" viewBox="0 0 24 24" fill="none" xmlns="http://www.w3.org/2000/svg">
<path d="M16.8 14.3333H15.2V15.8889H16.8M16.8 11.2222H15.2V12.7778H16.8M18.4 17.4444H12V15.8889H13.6V14.3333H12V12.7778H13.6V11.2222H12V9.66667H18.4M10.4 8.11111H8.8V6.55556H10.4M10.4 11.2222H8.8V9.66667H10.4M10.4 14.3333H8.8V12.7778H10.4M10.4 17.4444H8.8V15.8889H10.4M7.2 8.11111H5.6V6.55556H7.2M7.2 11.2222H5.6V9.66667H7.2M7.2 14.3333H5.6V12.7778H7.2M7.2 17.4444H5.6V15.8889H7.2M12 8.11111V5H4V19H20V8.11111H12Z" fill="white"/>
</svg>
