<svg width="12" height="12" viewBox="0 0 12 12" fill="none" xmlns="http://www.w3.org/2000/svg">
<path d="M5.76026 8.46406L8.71856 5.50576C8.22089 5.29786 7.76889 4.99426 7.38821 4.61219C7.00595 4.23143 6.70221 3.77928 6.49424 3.28144L3.53594 6.23974C3.30515 6.47053 3.18956 6.58612 3.09036 6.71332C2.97332 6.8635 2.87287 7.02591 2.79077 7.1977C2.72157 7.3433 2.66997 7.49849 2.56678 7.80808L2.022 9.44122C1.99692 9.516 1.9932 9.59628 2.01126 9.67306C2.02931 9.74983 2.06841 9.82005 2.12418 9.87582C2.17995 9.93159 2.25017 9.97069 2.32694 9.98875C2.40372 10.0068 2.484 10.0031 2.55878 9.978L4.19192 9.43322C4.50191 9.33003 4.6567 9.27843 4.8023 9.20923C4.97483 9.1271 5.13629 9.02724 5.28668 8.90964C5.41388 8.81044 5.52947 8.69485 5.76026 8.46406ZM9.53933 4.68499C9.83429 4.39003 10 3.98997 10 3.57283C10 3.15569 9.83429 2.75564 9.53933 2.46067C9.24436 2.16571 8.84431 2 8.42717 2C8.01003 2 7.60997 2.16571 7.31501 2.46067L6.96022 2.81546L6.97542 2.85986C7.15021 3.36015 7.43633 3.81422 7.81219 4.18781C8.19695 4.57492 8.66692 4.86668 9.18454 5.03978L9.53933 4.68499Z" fill="white"/>
</svg>
