<svg width="36" height="36" viewBox="0 0 36 36" fill="none" xmlns="http://www.w3.org/2000/svg">
<g filter="url(#filter0_d_453_1491)">
<rect x="2" y="1" width="32" height="32" rx="16" fill="#227EFF"/>
<rect x="2.5" y="1.5" width="31" height="31" rx="15.5" stroke="white"/>
</g>
<path d="M23 16.375C23.3984 16.375 23.75 16.7266 23.75 17.125V17.875C23.75 18.2969 23.3984 18.625 23 18.625H19.625V22C19.625 22.4219 19.2734 22.75 18.875 22.75H18.125C17.7031 22.75 17.375 22.4219 17.375 22V18.625H14C13.5781 18.625 13.25 18.2969 13.25 17.875V17.125C13.25 16.7266 13.5781 16.375 14 16.375H17.375V13C17.375 12.6016 17.7031 12.25 18.125 12.25H18.875C19.2734 12.25 19.625 12.6016 19.625 13V16.375H23Z" fill="white"/>
<defs>
<filter id="filter0_d_453_1491" x="0" y="0" width="36" height="36" filterUnits="userSpaceOnUse" color-interpolation-filters="sRGB">
<feFlood flood-opacity="0" result="BackgroundImageFix"/>
<feColorMatrix in="SourceAlpha" type="matrix" values="0 0 0 0 0 0 0 0 0 0 0 0 0 0 0 0 0 0 127 0" result="hardAlpha"/>
<feOffset dy="1"/>
<feGaussianBlur stdDeviation="1"/>
<feColorMatrix type="matrix" values="0 0 0 0 0 0 0 0 0 0 0 0 0 0 0 0 0 0 0.06 0"/>
<feBlend mode="normal" in2="BackgroundImageFix" result="effect1_dropShadow_453_1491"/>
<feBlend mode="normal" in="SourceGraphic" in2="effect1_dropShadow_453_1491" result="shape"/>
</filter>
</defs>
</svg>
