<svg width="12" height="12" viewBox="0 0 12 12" fill="none" xmlns="http://www.w3.org/2000/svg">
<path d="M8.79601 3.29324L6.65101 1.14824C6.33601 0.833239 5.79601 1.05324 5.79601 1.49824V4.58824L3.85101 2.64324C3.80472 2.59695 3.74976 2.56023 3.68928 2.53517C3.6288 2.51012 3.56398 2.49723 3.49851 2.49723C3.43305 2.49723 3.36822 2.51012 3.30774 2.53517C3.24726 2.56023 3.1923 2.59695 3.14601 2.64324C3.09972 2.68953 3.063 2.74448 3.03795 2.80497C3.01289 2.86545 3 2.93027 3 2.99574C3 3.0612 3.01289 3.12603 3.03795 3.18651C3.063 3.24699 3.09972 3.30195 3.14601 3.34824L5.59101 5.79324L3.14601 8.23824C3.09972 8.28453 3.063 8.33949 3.03795 8.39997C3.01289 8.46045 3 8.52527 3 8.59074C3 8.6562 3.01289 8.72103 3.03795 8.78151C3.063 8.84199 3.09972 8.89695 3.14601 8.94324C3.1923 8.98953 3.24726 9.02625 3.30774 9.0513C3.36822 9.07635 3.43305 9.08925 3.49851 9.08925C3.56398 9.08925 3.6288 9.07635 3.68928 9.0513C3.74976 9.02625 3.80472 8.98953 3.85101 8.94324L5.79601 6.99824V10.0882C5.79601 10.5332 6.33601 10.7582 6.65101 10.4432L8.79601 8.29324C8.84236 8.24698 8.87914 8.19204 8.90423 8.13155C8.92932 8.07106 8.94223 8.00622 8.94223 7.94074C8.94223 7.87525 8.92932 7.81041 8.90423 7.74993C8.87914 7.68944 8.84236 7.6345 8.79601 7.58824L7.00101 5.79324L8.79601 4.00324C8.99101 3.80824 8.99101 3.48824 8.79601 3.29324ZM6.79601 2.70824L7.73601 3.64824L6.79601 4.58824V2.70824ZM7.73601 7.93824L6.79601 8.87824V6.99824L7.73601 7.93824Z" fill="white"/>
</svg>
