<svg width="28" height="28" viewBox="0 0 28 28" fill="none" xmlns="http://www.w3.org/2000/svg">
<path fill-rule="evenodd" clip-rule="evenodd" d="M14.3115 2.33398C15.1469 2.33398 15.9589 2.67698 16.541 3.27315C17.122 3.87282 17.4429 4.69532 17.4184 5.52948C17.4207 5.71732 17.4825 5.93432 17.5945 6.12448C17.78 6.43948 18.0729 6.66115 18.4205 6.75215C18.7682 6.83848 19.1322 6.79182 19.4414 6.60865C20.9347 5.75582 22.8352 6.26682 23.688 7.74848L24.4149 9.00732C24.4335 9.04115 24.4499 9.07382 24.4639 9.10765C25.2362 10.5672 24.7205 12.4047 23.2855 13.2435C23.0767 13.3637 22.9075 13.5317 22.7909 13.7347C22.6101 14.0485 22.5599 14.4218 22.6509 14.7648C22.7442 15.1148 22.9671 15.4053 23.2809 15.585C23.989 15.9922 24.5175 16.6782 24.7287 17.4703C24.9399 18.2613 24.8244 19.12 24.4125 19.8281L23.6379 21.1185C22.785 22.5838 20.8846 23.0913 19.4064 22.2373C19.2092 22.1241 18.9817 22.0623 18.7554 22.0565H18.7484C18.4112 22.0565 18.0647 22.2 17.8127 22.4508C17.5572 22.7063 17.4172 23.047 17.4195 23.4087C17.4114 25.1225 16.0172 26.5085 14.3115 26.5085H12.8497C11.1359 26.5085 9.74171 25.1155 9.74171 23.4017C9.73938 23.1905 9.67871 22.9712 9.56555 22.781C9.38238 22.4613 9.08605 22.2327 8.74421 22.1417C8.40471 22.0507 8.03255 22.1008 7.72688 22.2782C6.99421 22.6865 6.13205 22.7857 5.34338 22.564C4.55588 22.3412 3.87571 21.7998 3.47671 21.0823L2.74755 19.8258C1.89471 18.3465 2.40221 16.4507 3.87921 15.5967C4.29805 15.3552 4.55821 14.9048 4.55821 14.4218C4.55821 13.9388 4.29805 13.4873 3.87921 13.2458C2.40105 12.3872 1.89471 10.4867 2.74638 9.00732L3.53738 7.70882C4.37855 6.24582 6.28021 5.73015 7.76305 6.58182C7.96488 6.70198 8.18421 6.76265 8.40705 6.76498C9.13388 6.76498 9.74171 6.16532 9.75338 5.42798C9.74871 4.61482 10.0695 3.83432 10.654 3.24515C11.2409 2.65715 12.0202 2.33398 12.8497 2.33398H14.3115ZM14.3115 4.08398H12.8497C12.488 4.08398 12.1497 4.22515 11.8942 4.47948C11.6399 4.73498 11.501 5.07448 11.5034 5.43615C11.4789 7.14182 10.0847 8.51498 8.39655 8.51498C7.85521 8.50915 7.33371 8.36332 6.88105 8.09265C6.24521 7.73098 5.41455 7.95382 5.04238 8.60132L4.25255 9.89982C3.89088 10.5275 4.11255 11.357 4.75655 11.7315C5.71205 12.2845 6.30821 13.3158 6.30821 14.4218C6.30821 15.5278 5.71205 16.558 4.75421 17.1122C4.11371 17.4832 3.89205 18.308 4.26305 18.9497L4.99921 20.219C5.18121 20.5468 5.47871 20.7836 5.82288 20.8805C6.16588 20.9762 6.54388 20.9353 6.85888 20.7603C7.32205 20.4885 7.86105 20.3473 8.40238 20.3473C8.66955 20.3473 8.93671 20.3811 9.19805 20.4511C9.98671 20.6635 10.6715 21.1908 11.0775 21.899C11.3412 22.3435 11.487 22.8627 11.4917 23.3923C11.4917 24.1507 12.1007 24.7585 12.8497 24.7585H14.3115C15.057 24.7585 15.666 24.1542 15.6695 23.4087C15.6649 22.585 15.9869 21.8022 16.576 21.213C17.157 20.632 17.969 20.2832 18.781 20.3065C19.313 20.3193 19.8252 20.4628 20.2767 20.7195C20.9265 21.0917 21.756 20.87 22.1317 20.2283L22.9064 18.9368C23.079 18.6393 23.1292 18.266 23.0371 17.9218C22.9461 17.5777 22.7174 17.279 22.4094 17.1028C21.6884 16.6875 21.1739 16.0178 20.9604 15.2152C20.7492 14.4277 20.8647 13.5678 21.2765 12.8597C21.5449 12.393 21.938 11.9998 22.4094 11.7292C23.0417 11.3593 23.2634 10.5322 22.8959 9.88815C22.8807 9.86248 22.8667 9.83565 22.855 9.80765L22.1714 8.62232C21.7992 7.97482 20.9709 7.75198 20.321 8.12182C19.6187 8.53715 18.7834 8.65615 17.9807 8.44498C17.1792 8.23732 16.5072 7.72982 16.0884 7.01348C15.82 6.56548 15.6742 6.04398 15.6695 5.51315C15.68 5.11415 15.54 4.75598 15.2857 4.49348C15.0325 4.23215 14.6767 4.08398 14.3115 4.08398ZM13.5858 10.4704C15.7639 10.4704 17.5361 12.2438 17.5361 14.4219C17.5361 16.6001 15.7639 18.3711 13.5858 18.3711C11.4076 18.3711 9.63543 16.6001 9.63543 14.4219C9.63543 12.2438 11.4076 10.4704 13.5858 10.4704ZM13.5858 12.2204C12.3724 12.2204 11.3854 13.2086 11.3854 14.4219C11.3854 15.6353 12.3724 16.6211 13.5858 16.6211C14.7991 16.6211 15.7861 15.6353 15.7861 14.4219C15.7861 13.2086 14.7991 12.2204 13.5858 12.2204Z" fill="#8C8C8C"/>
</svg>
