<svg width="18" height="18" viewBox="0 0 18 18" fill="none" xmlns="http://www.w3.org/2000/svg">
<path d="M0 9C0 7.21997 0.527841 5.47991 1.51677 3.99987C2.50571 2.51983 3.91131 1.36628 5.55585 0.685088C7.20038 0.00389957 9.00998 -0.17433 10.7558 0.172937C12.5016 0.520203 14.1053 1.37737 15.364 2.63604C16.6226 3.89472 17.4798 5.49836 17.8271 7.24419C18.1743 8.99002 17.9961 10.7996 17.3149 12.4442C16.6337 14.0887 15.4802 15.4943 14.0001 16.4832C12.5201 17.4722 10.78 18 9 18C6.61386 17.9974 4.32622 17.0483 2.63896 15.361C0.951708 13.6738 0.00264685 11.3861 0 9H0ZM1.384 9C1.384 10.5063 1.83067 11.9788 2.66753 13.2312C3.50438 14.4837 4.69384 15.4598 6.08548 16.0363C7.47713 16.6127 9.00845 16.7635 10.4858 16.4697C11.9632 16.1758 13.3202 15.4504 14.3853 14.3853C15.4504 13.3202 16.1758 11.9632 16.4697 10.4858C16.7635 9.00845 16.6127 7.47713 16.0363 6.08549C15.4598 4.69384 14.4837 3.50439 13.2312 2.66753C11.9788 1.83067 10.5063 1.384 9 1.384C6.98076 1.38612 5.04483 2.1892 3.61701 3.61702C2.1892 5.04484 1.38612 6.98077 1.384 9ZM10.962 12.864L8.51 10.413C8.38123 10.2825 8.30933 10.1063 8.31 9.923V5.123C8.31 4.93947 8.38291 4.76346 8.51268 4.63369C8.64246 4.50391 8.81847 4.431 9.002 4.431C9.18553 4.431 9.36154 4.50391 9.49132 4.63369C9.62109 4.76346 9.694 4.93947 9.694 5.123V9.636L11.942 11.884C12.008 11.9478 12.0607 12.0242 12.097 12.1085C12.1332 12.1929 12.1523 12.2837 12.1531 12.3755C12.1539 12.4674 12.1365 12.5585 12.1017 12.6435C12.067 12.7285 12.0156 12.8057 11.9507 12.8707C11.8858 12.9357 11.8086 12.9871 11.7236 13.0219C11.6387 13.0568 11.5476 13.0743 11.4557 13.0736C11.3639 13.0729 11.2731 13.0539 11.1887 13.0178C11.1043 12.9816 11.0279 12.929 10.964 12.863L10.962 12.864Z" fill="#8C8C8C"/>
</svg>
